# Blender v2.69 (sub 0) OBJ File: 'ArrowY.blend'
# www.blender.org
o Cylinder
v -0.220246 -0.000000 0.220246
v -0.220246 -0.000000 -0.220246
v -0.216014 -0.042968 0.220246
v -0.216014 -0.042968 -0.220246
v -0.203481 -0.084285 0.220246
v -0.203481 -0.084285 -0.220246
v -0.183128 -0.122362 0.220246
v -0.183128 -0.122362 -0.220246
v -0.155738 -0.155738 0.220246
v -0.155738 -0.155738 -0.220246
v -0.122362 -0.183128 0.220246
v -0.122362 -0.183128 -0.220246
v -0.084285 -0.203481 0.220246
v -0.084285 -0.203481 -0.220246
v -0.042968 -0.216014 0.220246
v -0.042968 -0.216014 -0.220246
v -0.000000 -0.220246 0.220246
v -0.000000 -0.220246 -0.220246
v 0.042968 -0.216014 0.220246
v 0.042968 -0.216014 -0.220246
v 0.084284 -0.203481 0.220246
v 0.084284 -0.203481 -0.220246
v 0.122362 -0.183128 0.220246
v 0.122362 -0.183128 -0.220246
v 0.155737 -0.155738 0.220246
v 0.155737 -0.155738 -0.220246
v 0.183128 -0.122362 0.220246
v 0.183128 -0.122362 -0.220246
v 0.203481 -0.084285 0.220246
v 0.203481 -0.084285 -0.220246
v 0.216014 -0.042968 0.220246
v 0.216014 -0.042968 -0.220246
v 0.220246 0.000000 0.220246
v 0.220246 0.000000 -0.220246
v 0.216014 0.042968 0.220246
v 0.216014 0.042968 -0.220246
v 0.203481 0.084285 0.220246
v 0.203481 0.084285 -0.220246
v 0.183128 0.122362 0.220246
v 0.183128 0.122362 -0.220246
v 0.155737 0.155738 0.220246
v 0.155737 0.155738 -0.220246
v 0.122362 0.183128 0.220246
v 0.122362 0.183128 -0.220246
v 0.084284 0.203481 0.220246
v 0.084284 0.203481 -0.220246
v 0.042967 0.216014 0.220246
v 0.042967 0.216014 -0.220246
v -0.000000 0.220246 0.220246
v -0.000000 0.220246 -0.220246
v -0.042968 0.216014 0.220246
v -0.042968 0.216014 -0.220246
v -0.084285 0.203481 0.220246
v -0.084285 0.203481 -0.220246
v -0.122363 0.183128 0.220246
v -0.122363 0.183128 -0.220246
v -0.155738 0.155737 0.220246
v -0.155738 0.155737 -0.220246
v -0.183128 0.122362 0.220246
v -0.183128 0.122362 -0.220246
v -0.203481 0.084284 0.220246
v -0.203481 0.084284 -0.220246
v -0.216014 0.042967 0.220246
v -0.216014 0.042967 -0.220246
v -0.220246 -0.000000 -2.104495
v -0.216014 -0.042968 -2.104495
v -0.203481 -0.084285 -2.104495
v -0.183128 -0.122362 -2.104495
v -0.155738 -0.155738 -2.104495
v -0.122362 -0.183128 -2.104495
v -0.084285 -0.203481 -2.104495
v -0.042968 -0.216014 -2.104495
v -0.000000 -0.220246 -2.104495
v 0.042968 -0.216014 -2.104495
v 0.084284 -0.203481 -2.104495
v 0.122362 -0.183128 -2.104495
v 0.155737 -0.155738 -2.104495
v 0.183128 -0.122362 -2.104495
v 0.203481 -0.084285 -2.104495
v 0.216014 -0.042968 -2.104495
v 0.220246 -0.000000 -2.104495
v 0.216014 0.042968 -2.104495
v 0.203481 0.084284 -2.104495
v 0.183128 0.122362 -2.104495
v 0.155737 0.155737 -2.104495
v 0.122362 0.183128 -2.104495
v 0.084284 0.203481 -2.104495
v 0.042968 0.216014 -2.104495
v -0.000000 0.220246 -2.104495
v -0.042968 0.216014 -2.104495
v -0.084285 0.203481 -2.104495
v -0.122363 0.183128 -2.104495
v -0.155738 0.155737 -2.104495
v -0.183128 0.122362 -2.104495
v -0.203481 0.084284 -2.104495
v -0.216014 0.042967 -2.104495
v -0.609353 -0.000000 -2.227878
v -0.597645 -0.118879 -2.227878
v -0.562969 -0.233190 -2.227878
v -0.506659 -0.338539 -2.227878
v -0.430878 -0.430878 -2.227878
v -0.338539 -0.506659 -2.227878
v -0.233189 -0.562969 -2.227878
v -0.118879 -0.597645 -2.227878
v 0.000000 -0.609354 -2.227878
v 0.118879 -0.597645 -2.227878
v 0.233189 -0.562969 -2.227878
v 0.338539 -0.506659 -2.227878
v 0.430878 -0.430878 -2.227878
v 0.506659 -0.338539 -2.227878
v 0.562969 -0.233190 -2.227878
v 0.597645 -0.118879 -2.227878
v 0.609353 0.000000 -2.227878
v 0.597645 0.118879 -2.227878
v 0.562969 0.233190 -2.227878
v 0.506659 0.338539 -2.227878
v 0.430878 0.430878 -2.227878
v 0.338538 0.506659 -2.227878
v 0.233189 0.562969 -2.227878
v 0.118878 0.597645 -2.227878
v -0.000001 0.609353 -2.227878
v -0.118880 0.597645 -2.227878
v -0.233190 0.562969 -2.227878
v -0.338539 0.506658 -2.227878
v -0.430878 0.430877 -2.227878
v -0.506659 0.338538 -2.227878
v -0.562970 0.233188 -2.227878
v -0.597645 0.118878 -2.227878
v -0.094214 -0.000000 -3.444029
v -0.092404 -0.018381 -3.444029
v -0.087043 -0.036055 -3.444029
v -0.078336 -0.052343 -3.444029
v -0.066620 -0.066620 -3.444029
v -0.052343 -0.078337 -3.444029
v -0.036054 -0.087043 -3.444029
v -0.018380 -0.092404 -3.444029
v -0.000000 -0.094215 -3.444029
v 0.018380 -0.092404 -3.444029
v 0.036054 -0.087043 -3.444029
v 0.052343 -0.078337 -3.444029
v 0.066620 -0.066620 -3.444029
v 0.078336 -0.052343 -3.444029
v 0.087043 -0.036055 -3.444029
v 0.092404 -0.018381 -3.444029
v 0.094214 -0.000000 -3.444029
v 0.092404 0.018380 -3.444029
v 0.087043 0.036054 -3.444029
v 0.078336 0.052342 -3.444029
v 0.066619 0.066619 -3.444029
v 0.052342 0.078336 -3.444029
v 0.036054 0.087042 -3.444029
v 0.018380 0.092404 -3.444029
v -0.000000 0.094214 -3.444029
v -0.018380 0.092404 -3.444029
v -0.036054 0.087042 -3.444029
v -0.052343 0.078336 -3.444029
v -0.066620 0.066619 -3.444029
v -0.078336 0.052342 -3.444029
v -0.087043 0.036054 -3.444029
v -0.092404 0.018380 -3.444029
vn -0.995185 -0.098018 -0.000000
vn -0.956940 -0.290285 -0.000000
vn -0.881921 -0.471396 -0.000000
vn -0.773011 -0.634393 -0.000000
vn -0.634393 -0.773010 -0.000000
vn -0.471396 -0.881922 -0.000000
vn -0.290284 -0.956941 0.000000
vn -0.098018 -0.995185 0.000000
vn 0.098016 -0.995185 0.000000
vn 0.290286 -0.956940 0.000000
vn 0.471396 -0.881921 0.000000
vn 0.634393 -0.773011 0.000000
vn 0.773011 -0.634392 0.000000
vn 0.881921 -0.471397 0.000000
vn 0.956941 -0.290284 0.000000
vn 0.995185 -0.098016 0.000000
vn 0.995185 0.098018 0.000000
vn 0.956940 0.290286 0.000000
vn 0.881921 0.471396 0.000000
vn 0.773010 0.634394 0.000000
vn 0.634393 0.773011 0.000000
vn 0.471396 0.881922 0.000000
vn 0.290284 0.956941 -0.000000
vn 0.098016 0.995185 -0.000000
vn -0.098019 0.995185 -0.000000
vn -0.290285 0.956940 -0.000000
vn -0.471398 0.881921 -0.000000
vn -0.634395 0.773009 -0.000000
vn -0.773011 0.634392 -0.000000
vn -0.881922 0.471396 -0.000000
vn -0.995185 0.098017 -0.000000
vn -0.956941 0.290283 -0.000000
vn -0.000000 -0.000000 1.000000
vn -0.029759 0.302128 0.952803
vn -0.881921 -0.471397 -0.000000
vn -0.773011 0.634393 -0.000000
vn 0.956940 0.290285 0.000000
vn -0.290284 -0.956940 0.000000
vn -0.881922 0.471395 -0.000000
vn 0.881921 0.471397 0.000000
vn -0.434381 0.812667 -0.388440
vn -0.267743 -0.143111 0.952803
vn 0.267742 -0.143112 0.952803
vn 0.088128 0.290518 0.952803
vn -0.302129 -0.029757 0.952803
vn 0.192595 -0.234679 0.952803
vn -0.302128 0.029757 0.952803
vn 0.192598 0.234678 0.952802
vn 0.088128 -0.290518 0.952803
vn -0.267744 0.143111 0.952802
vn 0.267743 0.143111 0.952802
vn -0.029757 -0.302128 0.952803
vn -0.192596 0.234678 0.952803
vn 0.302128 0.029757 0.952803
vn -0.143110 -0.267743 0.952803
vn -0.088130 0.290518 0.952802
vn -0.234679 -0.192596 0.952802
vn 0.290519 -0.088127 0.952802
vn 0.029758 0.302128 0.952803
vn -0.290518 -0.088128 0.952802
vn 0.234679 -0.192595 0.952803
vn 0.143109 0.267743 0.952803
vn 0.143112 -0.267743 0.952803
vn -0.290517 0.088127 0.952803
vn 0.234676 0.192596 0.952803
vn 0.029758 -0.302128 0.952803
vn -0.234679 0.192596 0.952803
vn 0.290517 0.088128 0.952803
vn -0.088129 -0.290518 0.952803
vn -0.143112 0.267743 0.952803
vn -0.192595 -0.234679 0.952803
vn 0.302129 -0.029757 0.952802
vn 0.000002 0.000000 -1.000000
vn -0.584577 -0.712309 -0.388440
vn 0.917037 -0.090319 -0.388440
vn -0.090322 0.917037 -0.388440
vn -0.812668 -0.434379 -0.388440
vn 0.812667 -0.434381 -0.388440
vn 0.267489 0.881796 -0.388440
vn -0.917037 -0.090321 -0.388440
vn 0.584576 -0.712310 -0.388440
vn -0.917037 0.090320 -0.388440
vn 0.584576 0.712309 -0.388440
vn 0.267491 -0.881795 -0.388440
vn -0.812668 0.434379 -0.388440
vn 0.812668 0.434379 -0.388440
vn -0.090320 -0.917037 -0.388440
vn -0.584578 0.712308 -0.388440
vn 0.917037 0.090321 -0.388440
vn -0.434379 -0.812668 -0.388440
vn -0.267490 0.881795 -0.388440
vn -0.712309 -0.584577 -0.388440
vn 0.881796 -0.267489 -0.388440
vn 0.090318 0.917037 -0.388440
vn -0.881796 -0.267490 -0.388440
vn 0.712310 -0.584576 -0.388440
vn 0.434379 0.812668 -0.388440
vn 0.434380 -0.812668 -0.388440
vn -0.881796 0.267488 -0.388440
vn 0.712308 0.584578 -0.388440
vn 0.090318 -0.917037 -0.388440
vn -0.712310 0.584576 -0.388440
vn 0.881795 0.267490 -0.388440
vn -0.267491 -0.881796 -0.388440
s off
f 1//1 2//1 4//1 3//1
f 3//2 4//2 6//2 5//2
f 5//3 6//3 8//3 7//3
f 7//4 8//4 10//4 9//4
f 9//5 10//5 12//5 11//5
f 11//6 12//6 14//6 13//6
f 13//7 14//7 16//7 15//7
f 15//8 16//8 18//8 17//8
f 17//9 18//9 20//9 19//9
f 19//10 20//10 22//10 21//10
f 21//11 22//11 24//11 23//11
f 23//12 24//12 26//12 25//12
f 25//13 26//13 28//13 27//13
f 27//14 28//14 30//14 29//14
f 29//15 30//15 32//15 31//15
f 31//16 32//16 34//16 33//16
f 33//17 34//17 36//17 35//17
f 35//18 36//18 38//18 37//18
f 37//19 38//19 40//19 39//19
f 39//20 40//20 42//20 41//20
f 41//21 42//21 44//21 43//21
f 43//22 44//22 46//22 45//22
f 45//23 46//23 48//23 47//23
f 47//24 48//24 50//24 49//24
f 49//25 50//25 52//25 51//25
f 51//26 52//26 54//26 53//26
f 53//27 54//27 56//27 55//27
f 55//28 56//28 58//28 57//28
f 57//29 58//29 60//29 59//29
f 59//30 60//30 62//30 61//30
f 46//22 44//22 86//22 87//22
f 63//31 64//31 2//31 1//31
f 61//32 62//32 64//32 63//32
f 1//33 3//33 5//33 7//33 9//33 11//33 13//33 15//33 17//33 19//33 21//33 23//33 25//33 27//33 29//33 31//33 33//33 35//33 37//33 39//33 41//33 43//33 45//33 47//33 49//33 51//33 53//33 55//33 57//33 59//33 61//33 63//33
f 90//34 89//34 121//34 122//34
f 24//11 22//11 75//11 76//11
f 52//25 50//25 89//25 90//25
f 8//35 6//35 67//35 68//35
f 30//14 28//14 78//14 79//14
f 58//28 56//28 92//28 93//28
f 36//17 34//17 81//17 82//17
f 14//6 12//6 70//6 71//6
f 64//32 62//32 95//32 96//32
f 42//20 40//20 84//20 85//20
f 20//9 18//9 73//9 74//9
f 48//23 46//23 87//23 88//23
f 26//12 24//12 76//12 77//12
f 54//26 52//26 90//26 91//26
f 10//4 8//4 68//4 69//4
f 32//15 30//15 79//15 80//15
f 60//36 58//36 93//36 94//36
f 38//37 36//37 82//37 83//37
f 16//38 14//38 71//38 72//38
f 2//31 64//31 96//31 65//31
f 44//21 42//21 85//21 86//21
f 22//10 20//10 74//10 75//10
f 50//24 48//24 88//24 89//24
f 6//2 4//2 66//2 67//2
f 28//13 26//13 77//13 78//13
f 56//27 54//27 91//27 92//27
f 12//5 10//5 69//5 70//5
f 34//16 32//16 80//16 81//16
f 62//39 60//39 94//39 95//39
f 40//40 38//40 83//40 84//40
f 4//1 2//1 65//1 66//1
f 18//8 16//8 72//8 73//8
f 124//41 123//41 155//41 156//41
f 68//42 67//42 99//42 100//42
f 79//43 78//43 110//43 111//43
f 88//44 87//44 119//44 120//44
f 66//45 65//45 97//45 98//45
f 77//46 76//46 108//46 109//46
f 65//47 96//47 128//47 97//47
f 86//48 85//48 117//48 118//48
f 75//49 74//49 106//49 107//49
f 95//50 94//50 126//50 127//50
f 84//51 83//51 115//51 116//51
f 73//52 72//52 104//52 105//52
f 93//53 92//53 124//53 125//53
f 82//54 81//54 113//54 114//54
f 71//55 70//55 102//55 103//55
f 91//56 90//56 122//56 123//56
f 69//57 68//57 100//57 101//57
f 80//58 79//58 111//58 112//58
f 89//59 88//59 120//59 121//59
f 67//60 66//60 98//60 99//60
f 78//61 77//61 109//61 110//61
f 87//62 86//62 118//62 119//62
f 76//63 75//63 107//63 108//63
f 96//64 95//64 127//64 128//64
f 85//65 84//65 116//65 117//65
f 74//66 73//66 105//66 106//66
f 94//67 93//67 125//67 126//67
f 83//68 82//68 114//68 115//68
f 72//69 71//69 103//69 104//69
f 92//70 91//70 123//70 124//70
f 70//71 69//71 101//71 102//71
f 81//72 80//72 112//72 113//72
f 130//73 129//73 160//73 159//73 158//73 157//73 156//73 155//73 154//73 153//73 152//73 151//73 150//73 149//73 148//73 147//73 146//73 145//73 144//73 143//73 142//73 141//73 140//73 139//73 138//73 137//73 136//73 135//73 134//73 133//73 132//73 131//73
f 102//74 101//74 133//74 134//74
f 113//75 112//75 144//75 145//75
f 122//76 121//76 153//76 154//76
f 100//77 99//77 131//77 132//77
f 111//78 110//78 142//78 143//78
f 120//79 119//79 151//79 152//79
f 98//80 97//80 129//80 130//80
f 109//81 108//81 140//81 141//81
f 97//82 128//82 160//82 129//82
f 118//83 117//83 149//83 150//83
f 107//84 106//84 138//84 139//84
f 127//85 126//85 158//85 159//85
f 116//86 115//86 147//86 148//86
f 105//87 104//87 136//87 137//87
f 125//88 124//88 156//88 157//88
f 114//89 113//89 145//89 146//89
f 103//90 102//90 134//90 135//90
f 123//91 122//91 154//91 155//91
f 101//92 100//92 132//92 133//92
f 112//93 111//93 143//93 144//93
f 121//94 120//94 152//94 153//94
f 99//95 98//95 130//95 131//95
f 110//96 109//96 141//96 142//96
f 119//97 118//97 150//97 151//97
f 108//98 107//98 139//98 140//98
f 128//99 127//99 159//99 160//99
f 117//100 116//100 148//100 149//100
f 106//101 105//101 137//101 138//101
f 126//102 125//102 157//102 158//102
f 115//103 114//103 146//103 147//103
f 104//104 103//104 135//104 136//104
