# Blender v2.69 (sub 0) OBJ File: ''
# www.blender.org
o Cylinder
v -0.220246 -0.000000 -0.220246
v 0.220246 -0.000000 -0.220246
v -0.220246 -0.042968 -0.216014
v 0.220246 -0.042968 -0.216014
v -0.220246 -0.084285 -0.203481
v 0.220246 -0.084285 -0.203481
v -0.220246 -0.122362 -0.183128
v 0.220246 -0.122362 -0.183128
v -0.220246 -0.155738 -0.155738
v 0.220246 -0.155738 -0.155738
v -0.220246 -0.183128 -0.122362
v 0.220246 -0.183128 -0.122362
v -0.220246 -0.203481 -0.084285
v 0.220246 -0.203481 -0.084285
v -0.220246 -0.216014 -0.042968
v 0.220246 -0.216014 -0.042968
v -0.220246 -0.220246 -0.000000
v 0.220246 -0.220246 -0.000000
v -0.220246 -0.216014 0.042968
v 0.220246 -0.216014 0.042968
v -0.220246 -0.203481 0.084284
v 0.220246 -0.203481 0.084284
v -0.220246 -0.183128 0.122362
v 0.220246 -0.183128 0.122362
v -0.220246 -0.155738 0.155737
v 0.220246 -0.155738 0.155737
v -0.220246 -0.122362 0.183128
v 0.220246 -0.122362 0.183128
v -0.220246 -0.084285 0.203481
v 0.220246 -0.084285 0.203481
v -0.220246 -0.042968 0.216014
v 0.220246 -0.042968 0.216014
v -0.220246 0.000000 0.220246
v 0.220246 0.000000 0.220246
v -0.220246 0.042968 0.216014
v 0.220246 0.042968 0.216014
v -0.220246 0.084285 0.203481
v 0.220246 0.084285 0.203481
v -0.220246 0.122362 0.183128
v 0.220246 0.122362 0.183128
v -0.220246 0.155738 0.155737
v 0.220246 0.155738 0.155737
v -0.220246 0.183128 0.122362
v 0.220246 0.183128 0.122362
v -0.220246 0.203481 0.084284
v 0.220246 0.203481 0.084284
v -0.220246 0.216014 0.042967
v 0.220246 0.216014 0.042967
v -0.220246 0.220246 -0.000000
v 0.220246 0.220246 -0.000000
v -0.220246 0.216014 -0.042968
v 0.220246 0.216014 -0.042968
v -0.220246 0.203481 -0.084285
v 0.220246 0.203481 -0.084285
v -0.220246 0.183128 -0.122363
v 0.220246 0.183128 -0.122363
v -0.220246 0.155737 -0.155738
v 0.220246 0.155737 -0.155738
v -0.220246 0.122362 -0.183128
v 0.220246 0.122362 -0.183128
v -0.220246 0.084284 -0.203481
v 0.220246 0.084284 -0.203481
v -0.220246 0.042967 -0.216014
v 0.220246 0.042968 -0.216014
v 2.104495 -0.000000 -0.220246
v 2.104495 -0.042968 -0.216014
v 2.104495 -0.084285 -0.203481
v 2.104495 -0.122362 -0.183128
v 2.104495 -0.155738 -0.155738
v 2.104495 -0.183128 -0.122362
v 2.104495 -0.203481 -0.084285
v 2.104495 -0.216014 -0.042968
v 2.104495 -0.220246 -0.000000
v 2.104495 -0.216014 0.042968
v 2.104495 -0.203481 0.084284
v 2.104495 -0.183128 0.122362
v 2.104495 -0.155738 0.155737
v 2.104495 -0.122362 0.183128
v 2.104495 -0.084285 0.203481
v 2.104495 -0.042968 0.216014
v 2.104495 0.000000 0.220246
v 2.104495 0.042968 0.216014
v 2.104495 0.084285 0.203481
v 2.104495 0.122362 0.183128
v 2.104495 0.155738 0.155737
v 2.104495 0.183128 0.122362
v 2.104495 0.203481 0.084284
v 2.104495 0.216014 0.042967
v 2.104495 0.220246 -0.000000
v 2.104495 0.216014 -0.042968
v 2.104495 0.203481 -0.084285
v 2.104495 0.183128 -0.122363
v 2.104495 0.155737 -0.155738
v 2.104495 0.122362 -0.183128
v 2.104495 0.084284 -0.203481
v 2.104495 0.042968 -0.216014
v 2.227878 -0.000000 -0.609354
v 2.227878 -0.118879 -0.597645
v 2.227878 -0.233189 -0.562969
v 2.227878 -0.338539 -0.506659
v 2.227878 -0.430878 -0.430878
v 2.227878 -0.506659 -0.338539
v 2.227878 -0.562969 -0.233190
v 2.227878 -0.597645 -0.118879
v 2.227878 -0.609353 -0.000000
v 2.227878 -0.597645 0.118879
v 2.227878 -0.562969 0.233189
v 2.227878 -0.506659 0.338538
v 2.227878 -0.430878 0.430878
v 2.227878 -0.338539 0.506659
v 2.227878 -0.233189 0.562969
v 2.227878 -0.118879 0.597645
v 2.227878 0.000000 0.609353
v 2.227878 0.118879 0.597645
v 2.227878 0.233190 0.562969
v 2.227878 0.338539 0.506659
v 2.227878 0.430878 0.430878
v 2.227878 0.506659 0.338538
v 2.227878 0.562969 0.233189
v 2.227878 0.597645 0.118878
v 2.227878 0.609353 -0.000001
v 2.227878 0.597645 -0.118880
v 2.227878 0.562969 -0.233190
v 2.227878 0.506658 -0.338539
v 2.227878 0.430877 -0.430879
v 2.227878 0.338538 -0.506659
v 2.227878 0.233189 -0.562970
v 2.227878 0.118878 -0.597645
v 3.444029 -0.000000 -0.094215
v 3.444029 -0.018380 -0.092404
v 3.444029 -0.036054 -0.087043
v 3.444029 -0.052343 -0.078337
v 3.444029 -0.066620 -0.066620
v 3.444029 -0.078336 -0.052343
v 3.444029 -0.087043 -0.036055
v 3.444029 -0.092404 -0.018381
v 3.444029 -0.094214 -0.000000
v 3.444029 -0.092404 0.018380
v 3.444029 -0.087043 0.036054
v 3.444029 -0.078336 0.052342
v 3.444029 -0.066620 0.066619
v 3.444029 -0.052343 0.078336
v 3.444029 -0.036054 0.087042
v 3.444029 -0.018380 0.092404
v 3.444029 -0.000000 0.094214
v 3.444029 0.018380 0.092404
v 3.444029 0.036054 0.087042
v 3.444029 0.052343 0.078336
v 3.444029 0.066620 0.066619
v 3.444029 0.078336 0.052342
v 3.444029 0.087043 0.036054
v 3.444029 0.092404 0.018380
v 3.444029 0.094214 -0.000000
v 3.444029 0.092404 -0.018381
v 3.444029 0.087043 -0.036055
v 3.444029 0.078336 -0.052343
v 3.444029 0.066619 -0.066620
v 3.444029 0.052342 -0.078337
v 3.444029 0.036054 -0.087043
v 3.444029 0.018380 -0.092404
vn 0.000000 -0.098018 -0.995185
vn 0.000000 -0.290285 -0.956940
vn 0.000000 -0.471396 -0.881921
vn 0.000000 -0.634393 -0.773011
vn 0.000000 -0.773011 -0.634393
vn 0.000000 -0.881922 -0.471396
vn 0.000000 -0.956940 -0.290284
vn 0.000000 -0.995185 -0.098018
vn 0.000000 -0.995185 0.098016
vn 0.000000 -0.956940 0.290286
vn 0.000000 -0.881922 0.471396
vn 0.000000 -0.773011 0.634392
vn 0.000000 -0.634393 0.773011
vn 0.000000 -0.471397 0.881921
vn -0.000000 -0.290284 0.956941
vn -0.000000 -0.098016 0.995185
vn -0.000000 0.098018 0.995185
vn -0.000000 0.290285 0.956940
vn -0.000000 0.471396 0.881921
vn -0.000000 0.634394 0.773010
vn -0.000000 0.773011 0.634392
vn -0.000000 0.881922 0.471396
vn -0.000000 0.956941 0.290284
vn -0.000000 0.995185 0.098016
vn -0.000000 0.995185 -0.098019
vn -0.000000 0.956940 -0.290285
vn -0.000000 0.881921 -0.471397
vn -0.000000 0.773009 -0.634395
vn -0.000000 0.634393 -0.773011
vn -0.000000 0.471396 -0.881922
vn 0.000000 0.098017 -0.995185
vn 0.000000 0.290283 -0.956941
vn -1.000000 -0.000000 0.000000
vn -0.952802 0.302129 -0.029758
vn 0.000000 -0.773011 0.634393
vn 0.000000 -0.290284 0.956940
vn 0.000000 0.773011 0.634393
vn 0.000000 0.471396 0.881922
vn 0.388440 0.812667 -0.434380
vn -0.952803 -0.143111 -0.267743
vn -0.952803 -0.143112 0.267742
vn -0.952803 0.290518 0.088127
vn -0.952803 -0.029757 -0.302128
vn -0.952802 -0.234680 0.192595
vn -0.952803 0.029756 -0.302128
vn -0.952803 0.234678 0.192595
vn -0.952803 -0.290518 0.088128
vn -0.952803 0.143110 -0.267743
vn -0.952803 0.143112 0.267743
vn -0.952803 -0.302129 -0.029757
vn -0.952803 0.234678 -0.192596
vn -0.952803 0.029759 0.302128
vn -0.952803 -0.267743 -0.143111
vn -0.952803 0.290518 -0.088128
vn -0.952802 -0.192597 -0.234679
vn -0.952803 -0.088129 0.290518
vn -0.952803 0.302128 0.029757
vn -0.952803 -0.088128 -0.290518
vn -0.952803 -0.192595 0.234679
vn -0.952803 0.267743 0.143111
vn -0.952802 -0.267743 0.143111
vn -0.952802 0.088129 -0.290518
vn -0.952803 0.192596 0.234678
vn -0.952803 -0.302129 0.029757
vn -0.952803 0.192596 -0.234679
vn -0.952803 0.088126 0.290518
vn -0.952803 -0.290518 -0.088127
vn -0.952803 0.267742 -0.143112
vn -0.952802 -0.234679 -0.192596
vn -0.952803 -0.029758 0.302128
vn 1.000000 -0.000003 0.000000
vn 0.388440 -0.712308 -0.584578
vn 0.388440 -0.090317 0.917037
vn 0.388440 0.917037 -0.090322
vn 0.388440 -0.434378 -0.812668
vn 0.388440 -0.434380 0.812667
vn 0.388440 0.881796 0.267489
vn 0.388440 -0.090320 -0.917037
vn 0.388440 -0.712310 0.584576
vn 0.388440 0.090319 -0.917037
vn 0.388440 0.712309 0.584577
vn 0.388440 -0.881795 0.267490
vn 0.388440 0.434379 -0.812668
vn 0.388440 0.434378 0.812668
vn 0.388440 -0.917037 -0.090321
vn 0.388440 0.712308 -0.584578
vn 0.388440 0.090320 0.917037
vn 0.388440 -0.812668 -0.434379
vn 0.388440 0.881796 -0.267490
vn 0.388440 -0.584577 -0.712309
vn 0.388440 -0.267490 0.881795
vn 0.388440 0.917037 0.090320
vn 0.388440 -0.267490 -0.881796
vn 0.388440 -0.584576 0.712310
vn 0.388440 0.812668 0.434379
vn 0.388440 -0.812667 0.434380
vn 0.388440 0.267488 -0.881796
vn 0.388440 0.584578 0.712308
vn 0.388440 -0.917037 0.090320
vn 0.388440 0.584576 -0.712310
vn 0.388440 0.267490 0.881795
vn 0.388440 -0.881796 -0.267489
s off
f 1//1 2//1 4//1 3//1
f 3//2 4//2 6//2 5//2
f 5//3 6//3 8//3 7//3
f 7//4 8//4 10//4 9//4
f 9//5 10//5 12//5 11//5
f 11//6 12//6 14//6 13//6
f 13//7 14//7 16//7 15//7
f 15//8 16//8 18//8 17//8
f 17//9 18//9 20//9 19//9
f 19//10 20//10 22//10 21//10
f 21//11 22//11 24//11 23//11
f 23//12 24//12 26//12 25//12
f 25//13 26//13 28//13 27//13
f 27//14 28//14 30//14 29//14
f 29//15 30//15 32//15 31//15
f 31//16 32//16 34//16 33//16
f 33//17 34//17 36//17 35//17
f 35//18 36//18 38//18 37//18
f 37//19 38//19 40//19 39//19
f 39//20 40//20 42//20 41//20
f 41//21 42//21 44//21 43//21
f 43//22 44//22 46//22 45//22
f 45//23 46//23 48//23 47//23
f 47//24 48//24 50//24 49//24
f 49//25 50//25 52//25 51//25
f 51//26 52//26 54//26 53//26
f 53//27 54//27 56//27 55//27
f 55//28 56//28 58//28 57//28
f 57//29 58//29 60//29 59//29
f 59//30 60//30 62//30 61//30
f 46//22 44//22 86//22 87//22
f 63//31 64//31 2//31 1//31
f 61//32 62//32 64//32 63//32
f 1//33 3//33 5//33 7//33 9//33 11//33 13//33 15//33 17//33 19//33 21//33 23//33 25//33 27//33 29//33 31//33 33//33 35//33 37//33 39//33 41//33 43//33 45//33 47//33 49//33 51//33 53//33 55//33 57//33 59//33 61//33 63//33
f 90//34 89//34 121//34 122//34
f 24//11 22//11 75//11 76//11
f 52//25 50//25 89//25 90//25
f 8//3 6//3 67//3 68//3
f 30//14 28//14 78//14 79//14
f 58//28 56//28 92//28 93//28
f 36//17 34//17 81//17 82//17
f 14//6 12//6 70//6 71//6
f 64//32 62//32 95//32 96//32
f 42//20 40//20 84//20 85//20
f 20//9 18//9 73//9 74//9
f 48//23 46//23 87//23 88//23
f 26//35 24//35 76//35 77//35
f 54//26 52//26 90//26 91//26
f 10//4 8//4 68//4 69//4
f 32//36 30//36 79//36 80//36
f 60//29 58//29 93//29 94//29
f 38//18 36//18 82//18 83//18
f 16//7 14//7 71//7 72//7
f 2//31 64//31 96//31 65//31
f 44//37 42//37 85//37 86//37
f 22//10 20//10 74//10 75//10
f 50//24 48//24 88//24 89//24
f 6//2 4//2 66//2 67//2
f 28//13 26//13 77//13 78//13
f 56//27 54//27 91//27 92//27
f 12//5 10//5 69//5 70//5
f 34//16 32//16 80//16 81//16
f 62//30 60//30 94//30 95//30
f 40//38 38//38 83//38 84//38
f 4//1 2//1 65//1 66//1
f 18//8 16//8 72//8 73//8
f 124//39 123//39 155//39 156//39
f 68//40 67//40 99//40 100//40
f 79//41 78//41 110//41 111//41
f 88//42 87//42 119//42 120//42
f 66//43 65//43 97//43 98//43
f 77//44 76//44 108//44 109//44
f 65//45 96//45 128//45 97//45
f 86//46 85//46 117//46 118//46
f 75//47 74//47 106//47 107//47
f 95//48 94//48 126//48 127//48
f 84//49 83//49 115//49 116//49
f 73//50 72//50 104//50 105//50
f 93//51 92//51 124//51 125//51
f 82//52 81//52 113//52 114//52
f 71//53 70//53 102//53 103//53
f 91//54 90//54 122//54 123//54
f 69//55 68//55 100//55 101//55
f 80//56 79//56 111//56 112//56
f 89//57 88//57 120//57 121//57
f 67//58 66//58 98//58 99//58
f 78//59 77//59 109//59 110//59
f 87//60 86//60 118//60 119//60
f 76//61 75//61 107//61 108//61
f 96//62 95//62 127//62 128//62
f 85//63 84//63 116//63 117//63
f 74//64 73//64 105//64 106//64
f 94//65 93//65 125//65 126//65
f 83//66 82//66 114//66 115//66
f 72//67 71//67 103//67 104//67
f 92//68 91//68 123//68 124//68
f 70//69 69//69 101//69 102//69
f 81//70 80//70 112//70 113//70
f 130//71 129//71 160//71 159//71 158//71 157//71 156//71 155//71 154//71 153//71 152//71 151//71 150//71 149//71 148//71 147//71 146//71 145//71 144//71 143//71 142//71 141//71 140//71 139//71 138//71 137//71 136//71 135//71 134//71 133//71 132//71 131//71
f 102//72 101//72 133//72 134//72
f 113//73 112//73 144//73 145//73
f 122//74 121//74 153//74 154//74
f 100//75 99//75 131//75 132//75
f 111//76 110//76 142//76 143//76
f 120//77 119//77 151//77 152//77
f 98//78 97//78 129//78 130//78
f 109//79 108//79 140//79 141//79
f 97//80 128//80 160//80 129//80
f 118//81 117//81 149//81 150//81
f 107//82 106//82 138//82 139//82
f 127//83 126//83 158//83 159//83
f 116//84 115//84 147//84 148//84
f 105//85 104//85 136//85 137//85
f 125//86 124//86 156//86 157//86
f 114//87 113//87 145//87 146//87
f 103//88 102//88 134//88 135//88
f 123//89 122//89 154//89 155//89
f 101//90 100//90 132//90 133//90
f 112//91 111//91 143//91 144//91
f 121//92 120//92 152//92 153//92
f 99//93 98//93 130//93 131//93
f 110//94 109//94 141//94 142//94
f 119//95 118//95 150//95 151//95
f 108//96 107//96 139//96 140//96
f 128//97 127//97 159//97 160//97
f 117//98 116//98 148//98 149//98
f 106//99 105//99 137//99 138//99
f 126//100 125//100 157//100 158//100
f 115//101 114//101 146//101 147//101
f 104//102 103//102 135//102 136//102
