# Blender v2.69 (sub 0) OBJ File: ''
# www.blender.org
mtllib Plane.mtl
o Cube
v -2.730875 -1.000000 0.006173
v -2.730875 -1.000000 -0.006173
v 2.730875 -1.000000 -0.006173
v 2.730874 -1.000000 0.006173
v -2.730876 1.000000 0.006173
v -2.730873 1.000000 -0.006173
v 2.730875 1.000000 -0.006173
v 2.730874 1.000000 0.006173
vn 0.000000 -1.000000 -0.000004
vn 0.000000 1.000000 0.000000
vn -1.000000 0.000000 -0.000126
vn 0.000000 -0.000000 -1.000000
vn 1.000000 -0.000001 0.000097
vn -0.000000 0.000000 1.000000
usemtl Material
s off
f 1//1 2//1 3//1 4//1
f 5//2 8//2 7//2 6//2
f 1//3 5//3 6//3 2//3
f 2//4 6//4 7//4 3//4
f 3//5 7//5 8//5 4//5
f 5//6 1//6 4//6 8//6
