# Blender v2.69 (sub 0) OBJ File: 'wiltzLogo.blend'
# www.blender.org
o Cube
v -2.522654 -1.000000 -1.055642
v -2.522654 -1.000000 0.442329
v -4.522655 -1.000000 0.442329
v -4.522654 -1.000000 -1.055642
v -2.522654 1.000000 -0.442329
v -2.522655 1.000000 0.442329
v -4.522655 1.000000 0.442329
v -4.522654 1.000000 -0.442329
v -4.034849 -1.000000 -1.055642
v -4.034849 -1.000000 0.442329
v -4.034849 1.000000 -0.442329
v -4.034850 1.000000 0.442329
v -3.677001 -1.000000 -1.055642
v -3.677002 -1.000000 0.442329
v -3.677001 1.000000 -0.442329
v -3.677002 1.000000 0.442329
v -2.522654 -0.842461 -1.055642
v -2.522654 -0.842461 0.442329
v -4.522655 -0.842461 0.442329
v -4.522654 -0.842461 -1.055642
v -4.034849 -0.842461 0.442329
v -4.034849 -0.842461 -1.055642
v -3.677002 -0.842461 0.442329
v -3.677001 -0.842461 -1.055642
v -3.308252 -1.000000 -1.055642
v -3.308252 -1.000000 0.442329
v -3.308252 1.000000 -0.442329
v -3.308252 1.000000 0.442329
v -3.308252 -0.842461 0.442329
v -3.308252 -0.842461 -1.055642
v -2.926838 -1.000000 -1.055642
v -2.926839 -1.000000 0.442329
v -2.926838 1.000000 -0.442329
v -2.926839 1.000000 0.442329
v -2.926839 -0.842461 0.442329
v -2.926838 -0.842461 -1.055642
v -2.522654 -0.606672 -0.442329
v -2.522655 -0.606672 0.442329
v -4.522655 -0.606672 0.442329
v -4.522654 -0.606672 -0.442329
v -4.034849 -0.606672 -0.442329
v -3.677001 -0.606672 -0.442329
v -4.034850 -0.606672 0.442329
v -3.677002 -0.606672 0.442329
v -3.308252 -0.606672 0.442329
v -3.308252 -0.606672 -0.442329
v -2.926839 -0.606672 0.442329
v -2.926838 -0.606672 -0.442329
v -4.034849 -0.609532 -0.442329
v -4.034850 -0.609532 0.442329
v -3.677001 -0.609532 -0.442329
v -3.677002 -0.609532 0.442329
v -3.308252 -0.609532 -0.442329
v -3.308252 -0.609532 0.442329
v -2.926838 -0.609532 -0.442329
v -2.926839 -0.609532 0.442329
v -1.176327 -1.000000 -1.055642
v -1.176327 -1.000000 0.442329
v -1.176327 -0.842461 -1.055642
v -1.176327 -0.842461 0.442329
v -1.958352 -0.842461 -1.055642
v -1.958352 -0.842461 0.442329
v -1.958352 -1.000000 0.442329
v -1.958352 -1.000000 -1.055642
v -1.514993 -0.842461 0.442329
v -1.514993 -1.000000 0.442329
v -1.514993 -0.842461 -1.055642
v -1.514993 -1.000000 -1.055642
v -1.958352 0.991864 -0.442329
v -1.958352 0.991864 0.442329
v -1.514993 0.991864 0.442329
v -1.514993 0.991864 -0.442329
v 0.350225 -1.000000 -1.055642
v 0.350225 -1.000000 0.442329
v 0.350225 -0.842461 -1.055642
v 0.350225 -0.842461 0.442329
v -0.952591 -0.842461 0.442329
v -0.952591 -1.000000 0.442329
v -0.952591 -1.000000 -1.055642
v -0.952591 -0.842461 -1.055642
v 0.239333 -1.000000 0.442329
v 0.239333 -1.000000 -1.055642
v 0.239333 -0.842461 0.442329
v 0.239333 -0.842461 -1.055642
v -0.616300 -1.000000 0.442329
v -0.616300 -1.000000 -1.055642
v -0.616300 -0.842461 0.442329
v -0.616300 -0.842461 -1.055642
v -0.952591 0.991864 0.442329
v -0.952591 0.991864 -0.442329
v -0.616300 0.991864 0.442329
v -0.616300 0.991864 -0.442329
v 0.239333 -0.633175 0.442329
v 0.239333 -0.633175 -0.442329
v -0.616300 -0.633175 0.442329
v -0.616300 -0.633175 -0.442329
v 1.761049 -1.000000 -1.055642
v 1.761049 -1.000000 0.442329
v 1.761049 -0.842461 -1.055642
v 1.761049 -0.842461 0.442329
v 0.794208 -0.842461 0.442329
v 0.794208 -1.000000 0.442329
v 0.794208 -1.000000 -1.055642
v 0.794208 -0.842461 -1.055642
v 1.211323 -1.000000 0.442329
v 1.211323 -1.000000 -1.055642
v 1.211323 -0.842461 0.442329
v 1.211323 -0.842461 -1.055642
v 0.794208 0.996781 0.442329
v 0.794208 0.996781 -0.442329
v 1.211323 0.996781 0.442329
v 1.211323 0.996781 -0.442329
v 1.211323 0.619888 0.442329
v 1.211323 0.619888 -0.442329
v 0.794208 0.619888 -0.442329
v 0.794208 0.619888 0.442329
v 0.326399 0.996781 0.442329
v 0.326399 0.996781 -0.442329
v 0.326399 0.367517 -0.442329
v 0.326399 0.367517 0.442329
v 1.672976 0.996781 0.442329
v 1.672976 0.996781 -0.442329
v 1.672976 0.367517 0.442329
v 1.672976 0.367517 -0.442329
v 0.560303 0.619888 -0.442329
v 0.560303 0.619888 0.442329
v 0.560303 0.996781 0.442329
v 0.560303 0.996781 -0.442329
v 1.442149 0.619888 0.442329
v 1.442149 0.619888 -0.442329
v 1.442149 0.996781 0.442329
v 1.442149 0.996781 -0.442329
v 3.835158 -1.000000 -1.055642
v 3.835158 -1.000000 0.442329
v 3.835158 -0.842461 -1.055642
v 3.835158 -0.842461 0.442329
v 2.111526 -0.842461 0.442329
v 2.111526 -1.000000 0.442329
v 2.111526 -1.000000 -1.055642
v 2.111526 -0.842461 -1.055642
v 3.585332 -1.000000 0.442329
v 3.585332 -1.000000 -1.055642
v 3.585332 -0.842461 0.442329
v 3.585332 -0.842461 -1.055642
v 2.111526 -0.661641 0.442329
v 2.111526 -0.661641 -0.442329
v 3.425785 -0.661641 0.442329
v 3.425785 -0.661641 -0.442329
v 2.497721 -1.000000 0.442329
v 2.497721 -1.000000 -1.055642
v 2.497721 -0.842461 0.442329
v 2.497721 -0.842461 -1.055642
v 2.497721 -0.661641 0.442329
v 2.497721 -0.661641 -0.442329
v 2.962442 0.976373 0.442329
v 2.962442 0.976373 -0.442329
v 3.348638 0.976373 0.442329
v 3.348638 0.976373 -0.442329
v 3.222792 0.734120 0.442329
v 3.222792 0.734120 -0.442329
v 2.836596 0.734120 -0.442329
v 2.836596 0.734120 0.442329
v 2.324255 0.976373 0.442329
v 2.324255 0.976373 -0.442329
v 2.198408 0.734120 -0.442329
v 2.198408 0.734120 0.442329
v 4.388253 -1.000000 -1.055642
v 4.388253 -1.000000 0.442329
v 4.388253 -0.842461 -1.055642
v 4.388253 -0.842461 0.442329
v 7.026049 -1.000000 -1.055642
v 7.026049 -1.000000 0.442329
v 5.388080 -0.842461 -1.055642
v 5.388080 -0.842461 0.442329
v -4.721077 1.000000 0.802177
v -4.721076 1.000000 -0.802177
v -3.836427 1.000000 -0.802177
v -3.836428 1.000000 0.802177
v -4.721077 1.089373 0.802177
v -4.721076 1.089373 -0.802177
v -3.836427 1.089373 -0.802177
v -3.836428 1.089373 0.802177
v -4.600388 1.313894 0.583301
v -4.600387 1.313894 -0.583301
v -3.957116 1.313894 -0.583301
v -3.957117 1.313894 0.583301
v -4.467565 1.675548 0.342421
v -4.467565 1.675548 -0.342422
v -4.089939 1.675548 -0.342422
v -4.089939 1.675548 0.342421
v -4.344835 2.411406 0.119845
v -4.344835 2.411406 -0.119845
v -4.212669 2.411406 -0.119845
v -4.212669 2.411406 0.119845
v -2.366039 1.000000 -0.785119
v -2.366041 1.000000 0.785120
v -3.083453 1.000000 -0.785119
v -3.083454 1.000000 0.785120
v -2.366039 1.081249 -0.785119
v -2.366041 1.081249 0.785120
v -3.083453 1.081249 -0.785119
v -3.083454 1.081249 0.785120
v -2.456523 1.295452 -0.587071
v -2.456525 1.295452 0.587072
v -2.992968 1.295452 -0.587071
v -2.992970 1.295452 0.587072
v -2.620899 1.960217 -0.227295
v -2.620900 1.960217 0.227296
v -2.828593 1.960217 -0.227295
v -2.828594 1.960217 0.227296
v -2.703380 2.388622 -0.046765
v -2.703381 2.388622 0.046765
v -2.746113 2.388622 -0.046765
v -2.746113 2.388622 0.046765
v -3.748003 1.000000 -0.612666
v -3.748004 1.000000 0.612667
v -3.237250 1.000000 -0.612666
v -3.237251 1.000000 0.612667
v -3.748003 1.079772 -0.612666
v -3.748004 1.079772 0.612667
v -3.237250 1.079772 -0.612666
v -3.237251 1.079772 0.612667
v -3.672312 1.248179 -0.431078
v -3.672312 1.248179 0.431078
v -3.312941 1.248179 -0.431078
v -3.312942 1.248179 0.431078
v -3.576959 1.620448 -0.202319
v -3.576959 1.620448 0.202320
v -3.408294 1.620448 -0.202319
v -3.408295 1.620448 0.202320
v -3.516279 2.240895 -0.056744
v -3.516279 2.240895 0.056744
v -3.468974 2.240895 -0.056744
v -3.468974 2.240895 0.056744
vn 0.000000 -1.000000 0.000000
vn 1.000000 0.000000 0.000001
vn 0.000000 0.000000 1.000000
vn -1.000000 -0.000000 -0.000001
vn 0.000000 0.000000 -1.000000
vn 0.000000 1.000000 0.000000
vn -1.000000 0.000000 -0.000000
vn 0.000000 0.933397 -0.358845
vn 0.000000 0.933397 -0.358844
vn 1.000000 -0.000001 0.000000
vn -1.000000 0.000001 -0.000000
vn 1.000000 0.000000 0.000000
vn 0.000000 0.317098 -0.948393
vn 0.000000 0.946415 -0.322952
vn -0.737901 -0.674909 0.000000
vn 0.733430 -0.679765 0.000000
vn 0.000000 0.386764 -0.922179
vn 0.749838 0.661622 0.000000
vn 0.000000 0.959182 -0.282790
vn 0.887406 -0.460989 0.000000
vn 0.887405 -0.460990 0.000000
vn -0.887405 0.460990 0.000000
vn -0.887405 0.460991 0.000000
vn 0.095738 0.995407 0.000000
vn 0.880809 0.473472 0.000001
vn 0.938695 0.344748 0.000001
vn -0.880809 0.473472 -0.000001
vn -0.000000 0.698048 0.716051
vn 0.000000 0.698048 -0.716051
vn 0.986375 0.164512 0.000001
vn -0.938695 0.344749 -0.000001
vn -0.000000 0.554345 0.832287
vn 0.000000 0.554345 -0.832287
vn -0.986375 0.164512 -0.000001
vn -0.000000 0.289518 0.957173
vn 0.000000 0.289518 -0.957173
vn -0.921183 0.389130 -0.000001
vn -0.970763 0.240039 -0.000001
vn -0.000000 0.678877 0.734252
vn 0.000000 0.678877 -0.734252
vn 0.921183 0.389130 0.000001
vn -0.981966 0.189058 -0.000001
vn -0.000000 0.475971 0.879461
vn 0.000000 0.475971 -0.879461
vn 0.970763 0.240039 0.000001
vn -0.000000 0.388330 0.921520
vn 0.000000 0.388329 -0.921521
vn 0.981966 0.189059 0.000001
vn 0.912109 0.409948 0.000001
vn 0.968727 0.248131 0.000001
vn 0.000000 0.733217 0.679995
vn 0.000000 0.733217 -0.679995
vn -0.912109 0.409947 -0.000001
vn 0.995252 0.097336 0.000000
vn 0.000000 0.523551 0.851995
vn 0.000000 0.523551 -0.851995
vn -0.968727 0.248131 -0.000001
vn 0.000000 0.228425 0.973561
vn 0.000000 0.228425 -0.973561
vn -0.995252 0.097335 -0.000000
s off
f 9//1 10//1 3//1 4//1
f 12//1 11//1 177//1 178//1
f 37//2 5//2 6//2 38//2
f 43//3 12//3 7//3 39//3
f 39//4 7//4 8//4 40//4
f 22//5 9//5 4//5 20//5
f 13//1 14//1 10//1 9//1
f 2//1 1//1 64//1 63//1
f 17//6 18//6 62//6 61//6
f 24//5 13//5 9//5 22//5
f 25//1 26//1 14//1 13//1
f 28//1 27//1 217//1 218//1
f 45//3 28//3 16//3 44//3
f 30//5 25//5 13//5 24//5
f 67//6 65//6 60//6 59//6
f 10//3 21//3 19//3 3//3
f 3//7 19//7 20//7 4//7
f 41//8 22//8 20//8 40//8
f 14//3 23//3 21//3 10//3
f 42//8 24//8 22//8 41//8
f 26//3 29//3 23//3 14//3
f 46//8 30//8 24//8 42//8
f 31//1 32//1 26//1 25//1
f 34//4 33//4 55//4 56//4
f 18//3 2//3 63//3 62//3
f 36//5 31//5 25//5 30//5
f 32//3 35//3 29//3 26//3
f 48//9 36//9 30//9 46//9
f 1//1 2//1 32//1 31//1
f 33//1 34//1 198//1 197//1
f 38//3 6//3 34//3 47//3
f 17//5 1//5 31//5 36//5
f 2//3 18//3 35//3 32//3
f 37//8 17//8 36//8 48//8
f 17//10 37//10 38//10 18//10
f 21//3 43//3 39//3 19//3
f 19//11 39//11 40//11 20//11
f 23//3 44//3 43//3 21//3
f 29//3 45//3 44//3 23//3
f 11//5 41//5 40//5 8//5
f 66//1 68//1 57//1 58//1
f 27//5 46//5 42//5 15//5
f 35//3 47//3 45//3 29//3
f 68//5 67//5 59//5 57//5
f 18//3 38//3 47//3 35//3
f 5//5 37//5 48//5 33//5
f 51//6 49//6 50//6 52//6
f 55//6 53//6 54//6 56//6
f 65//3 66//3 58//3 60//3
f 27//2 28//2 54//2 53//2
f 16//4 15//4 51//4 52//4
f 1//5 17//5 61//5 64//5
f 83//3 81//3 74//3 76//3
f 11//2 12//2 50//2 49//2
f 65//12 67//12 72//12 71//12
f 63//1 64//1 68//1 66//1
f 64//5 61//5 67//5 68//5
f 62//3 63//3 66//3 65//3
f 69//6 70//6 71//6 72//6
f 67//13 61//13 69//13 72//13
f 62//3 65//3 71//3 70//3
f 61//7 62//7 70//7 69//7
f 107//3 105//3 98//3 100//3
f 81//1 82//1 73//1 74//1
f 84//6 83//6 76//6 75//6
f 82//5 84//5 75//5 73//5
f 60//3 58//3 78//3 77//3
f 58//1 57//1 79//1 78//1
f 59//6 60//6 77//6 80//6
f 57//5 59//5 80//5 79//5
f 87//3 85//3 81//3 83//3
f 85//1 86//1 82//1 81//1
f 88//7 87//7 95//7 96//7
f 86//5 88//5 84//5 82//5
f 77//3 78//3 85//3 87//3
f 78//1 79//1 86//1 85//1
f 87//12 88//12 92//12 91//12
f 79//5 80//5 88//5 86//5
f 90//6 89//6 91//6 92//6
f 88//13 80//13 90//13 92//13
f 77//3 87//3 91//3 89//3
f 80//7 77//7 89//7 90//7
f 96//6 95//6 93//6 94//6
f 84//14 88//14 96//14 94//14
f 87//3 83//3 93//3 95//3
f 83//12 84//12 94//12 93//12
f 143//3 141//3 134//3 136//3
f 105//1 106//1 97//1 98//1
f 108//6 107//6 100//6 99//6
f 106//5 108//5 99//5 97//5
f 76//3 74//3 102//3 101//3
f 74//1 73//1 103//1 102//1
f 75//6 76//6 101//6 104//6
f 73//5 75//5 104//5 103//5
f 101//3 102//3 105//3 107//3
f 102//1 103//1 106//1 105//1
f 129//15 130//15 124//15 123//15
f 103//5 104//5 108//5 106//5
f 110//6 109//6 111//6 112//6
f 114//5 115//5 110//5 112//5
f 116//3 113//3 111//3 109//3
f 125//16 126//16 120//16 119//16
f 107//12 108//12 114//12 113//12
f 108//17 104//17 115//17 114//17
f 101//3 107//3 113//3 116//3
f 104//7 101//7 116//7 115//7
f 119//7 120//7 117//7 118//7
f 126//3 127//3 117//3 120//3
f 128//5 125//5 119//5 118//5
f 127//6 128//6 118//6 117//6
f 123//12 124//12 122//12 121//12
f 131//3 129//3 123//3 121//3
f 130//5 132//5 122//5 124//5
f 132//6 131//6 121//6 122//6
f 115//1 116//1 126//1 125//1
f 116//3 109//3 127//3 126//3
f 110//5 115//5 125//5 128//5
f 109//6 110//6 128//6 127//6
f 113//1 114//1 130//1 129//1
f 111//3 113//3 129//3 131//3
f 114//5 112//5 132//5 130//5
f 112//6 111//6 131//6 132//6
f 136//3 134//3 168//3 170//3
f 141//1 142//1 133//1 134//1
f 144//6 143//6 136//6 135//6
f 142//5 144//5 135//5 133//5
f 100//3 98//3 138//3 137//3
f 98//1 97//1 139//1 138//1
f 99//6 100//6 137//6 140//6
f 97//5 99//5 140//5 139//5
f 151//3 149//3 141//3 143//3
f 149//1 150//1 142//1 141//1
f 143//18 144//18 148//18 147//18
f 150//5 152//5 144//5 142//5
f 154//6 153//6 147//6 148//6
f 152//19 140//19 146//19 154//19
f 151//3 143//3 147//3 153//3
f 140//7 137//7 145//7 146//7
f 137//3 138//3 149//3 151//3
f 138//1 139//1 150//1 149//1
f 139//5 140//5 152//5 150//5
f 159//20 160//20 158//20 157//20
f 144//19 152//19 154//19 148//19
f 137//3 151//3 153//3 145//3
f 156//6 155//6 157//6 158//6
f 160//5 161//5 156//5 158//5
f 162//3 159//3 157//3 155//3
f 161//1 162//1 166//1 165//1
f 153//21 154//21 160//21 159//21
f 154//5 146//5 161//5 160//5
f 145//3 153//3 159//3 162//3
f 146//22 145//22 162//22 161//22
f 165//23 166//23 163//23 164//23
f 162//3 155//3 163//3 166//3
f 156//5 161//5 165//5 164//5
f 155//6 156//6 164//6 163//6
f 170//3 168//3 172//3 174//3
f 134//1 133//1 167//1 168//1
f 135//6 136//6 170//6 169//6
f 133//5 135//5 169//5 167//5
f 171//24 173//24 174//24 172//24
f 168//1 167//1 171//1 172//1
f 169//6 170//6 174//6 173//6
f 167//5 169//5 173//5 171//5
f 178//2 177//2 181//2 182//2
f 8//1 7//1 175//1 176//1
f 7//1 12//1 178//1 175//1
f 11//1 8//1 176//1 177//1
f 182//25 181//25 185//25 186//25
f 176//4 175//4 179//4 180//4
f 175//3 178//3 182//3 179//3
f 177//5 176//5 180//5 181//5
f 186//26 185//26 189//26 190//26
f 180//27 179//27 183//27 184//27
f 179//28 182//28 186//28 183//28
f 181//29 180//29 184//29 185//29
f 190//30 189//30 193//30 194//30
f 184//31 183//31 187//31 188//31
f 183//32 186//32 190//32 187//32
f 185//33 184//33 188//33 189//33
f 193//6 192//6 191//6 194//6
f 188//34 187//34 191//34 192//34
f 187//35 190//35 194//35 191//35
f 189//36 188//36 192//36 193//36
f 197//4 198//4 202//4 201//4
f 34//1 6//1 196//1 198//1
f 5//1 33//1 197//1 195//1
f 6//1 5//1 195//1 196//1
f 201//37 202//37 206//37 205//37
f 198//3 196//3 200//3 202//3
f 195//5 197//5 201//5 199//5
f 196//2 195//2 199//2 200//2
f 205//38 206//38 210//38 209//38
f 202//39 200//39 204//39 206//39
f 199//40 201//40 205//40 203//40
f 200//41 199//41 203//41 204//41
f 209//42 210//42 214//42 213//42
f 206//43 204//43 208//43 210//43
f 203//44 205//44 209//44 207//44
f 204//45 203//45 207//45 208//45
f 211//6 213//6 214//6 212//6
f 210//46 208//46 212//46 214//46
f 207//47 209//47 213//47 211//47
f 208//48 207//48 211//48 212//48
f 218//2 217//2 221//2 222//2
f 16//1 28//1 218//1 216//1
f 27//1 15//1 215//1 217//1
f 15//1 16//1 216//1 215//1
f 222//49 221//49 225//49 226//49
f 216//3 218//3 222//3 220//3
f 217//5 215//5 219//5 221//5
f 215//4 216//4 220//4 219//4
f 226//50 225//50 229//50 230//50
f 220//51 222//51 226//51 224//51
f 221//52 219//52 223//52 225//52
f 219//53 220//53 224//53 223//53
f 230//54 229//54 233//54 234//54
f 224//55 226//55 230//55 228//55
f 225//56 223//56 227//56 229//56
f 223//57 224//57 228//57 227//57
f 233//6 231//6 232//6 234//6
f 228//58 230//58 234//58 232//58
f 229//59 227//59 231//59 233//59
f 227//60 228//60 232//60 231//60
